<svg width="116" height="179" viewBox="0 0 116 179" fill="none" xmlns="http://www.w3.org/2000/svg">
<path d="M98.3353 16.7073C90.3508 8.72893 80.1787 3.296 69.105 1.09545C58.0314 -1.1051 46.5536 0.0255436 36.1228 4.34442C25.6921 8.6633 16.7768 15.9765 10.5043 25.3592C4.23175 34.742 0.883635 45.773 0.883264 57.0575V120.564C0.792574 128.114 2.20213 135.607 5.03023 142.609C7.85834 149.611 12.0487 155.982 17.3586 161.353C22.6684 166.724 28.992 170.988 35.963 173.899C42.9339 176.809 50.4135 178.308 57.9682 178.308C65.5229 178.308 73.0025 176.809 79.9734 173.899C86.9444 170.988 93.268 166.724 98.5778 161.353C103.888 155.982 108.078 149.611 110.906 142.609C113.734 135.607 115.144 128.114 115.053 120.564V57.0575C115.075 49.561 113.608 42.1347 110.739 35.2085C107.869 28.2823 103.653 21.9939 98.3353 16.7073ZM110.512 120.556C110.512 134.484 104.976 147.841 95.122 157.69C85.2682 167.539 71.9036 173.072 57.9682 173.072C44.0328 173.072 30.6682 167.539 20.8143 157.69C10.9605 147.841 5.42472 134.484 5.42472 120.556V57.0575C5.42472 43.1294 10.9605 29.7717 20.8143 19.923C30.6682 10.0743 44.0328 4.54136 57.9682 4.54136C71.9036 4.54136 85.2682 10.0743 95.122 19.923C104.976 29.7717 110.512 43.1294 110.512 57.0575V120.556Z" fill="#ED1941"/>
<path d="M60.251 109.553C60.251 109.553 59.527 91.7911 59.527 90.0231C59.527 88.2552 61.0244 87.6467 62.8179 88.0331C64.6115 88.4196 81.1894 91.7911 81.1894 91.7911C81.1894 91.7911 79.9224 88.1976 79.0421 85.5416C78.1618 82.8855 79.3136 82.4086 79.9307 81.8494L98.442 65.7817L95.5131 64.3427C93.736 63.5204 94.0157 62.0156 94.2872 61.0535L97.825 49.6975C97.825 49.6975 89.7869 51.4408 87.9522 51.7122C86.5125 51.9342 86.0106 51.2681 85.5663 50.2731L83.2545 44.7473L73.5627 55.4372C71.7363 57.0818 69.9757 55.8237 70.2718 53.8912C70.5845 52.1315 75.1342 31.1547 75.1342 31.1547C75.1342 31.1547 70.1073 34.1396 68.4454 35.1428C66.7835 36.146 65.9114 35.9651 65.0228 34.3698C64.1343 32.7746 58.1942 20.7361 57.9638 20.3003C57.7417 20.7361 51.7358 32.7581 50.8637 34.337C49.9916 35.9158 49.1031 36.1049 47.4412 35.1099C45.7793 34.1149 40.7524 31.1218 40.7524 31.1218C40.7524 31.1218 45.3021 52.0986 45.6147 53.8584C45.9438 55.799 44.1749 57.0735 42.3238 55.4043L32.6897 44.7308L30.3778 50.2567C29.9253 51.2599 29.4317 51.9013 27.9919 51.6957C26.1737 51.4243 18.1192 49.6811 18.1192 49.6811L21.6569 61.037C21.9366 62.032 22.2081 63.5039 20.431 64.3262L17.4939 65.7817L36.0382 81.8494C36.647 82.4086 37.7988 82.8855 36.9267 85.5416C36.0546 88.1976 34.7794 91.7911 34.7794 91.7911C34.7794 91.7911 51.3738 88.4196 53.1509 88.0331C54.928 87.6467 56.4418 88.2552 56.4418 90.0231C56.4418 91.7911 55.7178 109.553 55.7178 109.553H60.251Z" fill="#ED1941"/>
<path d="M42.2334 127.52C42.2334 124.854 41.4425 122.249 39.9608 120.032C38.4792 117.816 36.3732 116.088 33.9092 115.068C31.4452 114.048 28.7339 113.781 26.1182 114.301C23.5025 114.821 21.0998 116.105 19.2139 117.99C17.3281 119.875 16.0438 122.276 15.5235 124.891C15.0032 127.505 15.2702 130.215 16.2909 132.678C17.3115 135.14 19.0398 137.245 21.2573 138.726C23.4748 140.207 26.0819 140.998 28.7489 140.998C29.1438 140.998 29.5332 140.981 29.9172 140.948C29.8898 140.592 29.876 140.233 29.876 139.871C29.876 139.509 29.8925 139.114 29.9254 138.687C29.5345 138.726 29.1418 138.745 28.7489 138.744C25.9263 138.739 23.2095 137.67 21.1401 135.752C19.0707 133.833 17.8006 131.206 17.5829 128.393C17.3653 125.58 18.2162 122.789 19.966 120.575C21.7157 118.362 24.2359 116.888 27.024 116.449C29.8122 116.01 32.6636 116.637 35.0098 118.205C37.3561 119.773 39.0249 122.167 39.6837 124.911C40.3424 127.654 39.9426 130.544 38.5641 133.006C37.1855 135.468 34.9294 137.32 32.2455 138.194C32.1644 138.738 32.1231 139.288 32.1221 139.838C32.1221 140.068 32.1221 140.299 32.1221 140.529C35.0095 139.783 37.5681 138.102 39.3977 135.748C41.2272 133.394 42.2245 130.501 42.2334 127.52Z" fill="#0081C8"/>
<path d="M100.663 127.52C100.648 130.982 99.3012 134.305 96.9012 136.801C94.5012 139.297 91.2323 140.774 87.7722 140.926C84.3121 141.078 80.926 139.894 78.3158 137.619C75.7057 135.343 74.0715 132.151 73.7521 128.704C74.5408 128.786 75.3185 128.952 76.0722 129.198C76.4948 132.045 77.9942 134.622 80.2614 136.397C82.5286 138.172 85.3907 139.01 88.2579 138.739C91.1251 138.468 93.7788 137.107 95.6721 134.938C97.5654 132.769 98.5539 129.956 98.434 127.08C98.3142 124.204 97.0949 121.484 95.0276 119.48C92.9604 117.475 90.2026 116.34 87.3228 116.308C84.4429 116.276 81.6605 117.349 79.5489 119.307C77.4374 121.264 76.1576 123.957 75.9735 126.83C75.2423 126.641 74.4964 126.514 73.7439 126.451C74.016 122.976 75.6245 119.742 78.2317 117.427C80.8389 115.112 84.242 113.897 87.7265 114.036C91.2111 114.176 94.5062 115.659 96.9199 118.175C99.3336 120.69 100.678 124.043 100.672 127.528L100.663 127.52Z" fill="#ED1941"/>
<path d="M72.5758 128.647C75.2674 128.644 77.8706 129.607 79.9119 131.361C81.9532 133.114 83.297 135.542 83.699 138.202C84.4528 138.448 85.2305 138.613 86.0191 138.695C85.7228 135.338 84.1791 132.214 81.6922 129.939C79.2053 127.663 75.9557 126.401 72.584 126.402C72.1891 126.402 71.8024 126.402 71.4157 126.451C71.4157 126.805 71.4569 127.167 71.4569 127.528C71.4569 127.89 71.4569 128.351 71.4075 128.713C71.7956 128.671 72.1855 128.649 72.5758 128.647ZM83.7895 140.57C83.6629 142.607 82.9834 144.571 81.8239 146.252C80.6644 147.932 79.0689 149.264 77.2086 150.106C75.3483 150.948 73.2937 151.268 71.2655 151.03C69.2373 150.793 67.3121 150.008 65.6968 148.759C64.0815 147.51 62.8372 145.845 62.0975 143.943C61.3578 142.04 61.1507 139.972 61.4985 137.961C61.8463 135.95 62.7358 134.071 64.0714 132.527C65.407 130.983 67.1383 129.832 69.0792 129.198C69.1599 128.653 69.2012 128.104 69.2026 127.553C69.2026 127.323 69.2026 127.093 69.2026 126.862C66.8068 127.485 64.6285 128.754 62.9066 130.532C61.1846 132.309 59.9855 134.526 59.4405 136.939C58.8955 139.353 59.0257 141.87 59.8169 144.214C60.608 146.559 62.0296 148.64 63.9258 150.231C65.822 151.821 68.1197 152.859 70.567 153.231C73.0143 153.603 75.5168 153.294 77.8003 152.339C80.0838 151.384 82.0601 149.819 83.5127 147.815C84.9653 145.812 85.8381 143.448 86.0355 140.981C85.2766 140.908 84.5253 140.77 83.7895 140.57Z" fill="#00A651"/>
<path d="M42.1841 128.704C42.1841 128.318 42.2334 127.882 42.2334 127.52C42.2334 127.158 42.2334 126.805 42.1923 126.443C42.579 126.443 42.9656 126.394 43.3606 126.394C46.7336 126.393 49.9843 127.656 52.4714 129.933C54.9585 132.211 56.5014 135.337 56.7957 138.695C56.0071 138.613 55.2294 138.447 54.4756 138.202C54.0745 135.547 52.7354 133.124 50.701 131.371C48.6665 129.619 46.0712 128.652 43.3852 128.647C42.9841 128.645 42.5832 128.664 42.1841 128.704ZM56.804 140.948C56.6066 143.415 55.7338 145.779 54.2811 147.782C52.8285 149.786 50.8522 151.351 48.5687 152.306C46.2851 153.261 43.7826 153.57 41.3353 153.198C38.8879 152.826 36.5903 151.788 34.6941 150.197C32.7978 148.607 31.3762 146.525 30.5851 144.181C29.7939 141.837 29.6637 139.32 30.2087 136.906C30.7537 134.493 31.9528 132.276 33.6748 130.499C35.3967 128.721 37.575 127.452 39.9709 126.829C39.9709 127.06 39.9709 127.29 39.9709 127.52C39.9696 128.071 39.9283 128.62 39.8475 129.165C37.9101 129.802 36.1826 130.954 34.8504 132.497C33.5181 134.041 32.6312 135.918 32.2848 137.927C31.9384 139.936 32.1455 142.001 32.8839 143.901C33.6223 145.801 34.8641 147.465 36.4764 148.714C38.0886 149.962 40.0104 150.749 42.0358 150.989C44.0612 151.229 46.1138 150.914 47.9736 150.077C49.8335 149.24 51.4304 147.913 52.5932 146.238C53.756 144.564 54.4408 142.604 54.5744 140.57C55.3056 140.758 56.0515 140.885 56.804 140.948Z" fill="#FCB131"/>
<path d="M57.9639 114.043C54.5738 114.042 51.3079 115.318 48.8166 117.616C46.3253 119.914 44.7915 123.066 44.5205 126.443C45.2731 126.506 46.0189 126.632 46.7501 126.821C46.8796 124.786 47.5609 122.825 48.721 121.147C49.8811 119.47 51.4762 118.14 53.3353 117.299C55.1943 116.459 57.2471 116.141 59.2735 116.378C61.2999 116.615 63.2234 117.399 64.8378 118.646C66.4522 119.893 67.6966 121.556 68.4374 123.456C69.1782 125.356 69.3875 127.421 69.043 129.431C68.6984 131.441 67.8129 133.319 66.4814 134.864C65.15 136.41 63.4228 137.563 61.4852 138.202C61.4041 138.746 61.3628 139.296 61.3618 139.846C61.3618 140.077 61.3618 140.307 61.3618 140.537C64.5341 139.711 67.2965 137.757 69.1324 135.043C70.9682 132.328 71.7516 129.038 71.3362 125.788C70.9208 122.537 69.3349 119.55 66.8752 117.384C64.4155 115.217 61.2505 114.021 57.9721 114.018L57.9639 114.043ZM57.9639 138.712C55.2737 138.712 52.6724 137.748 50.6328 135.995C48.5932 134.242 47.2506 131.815 46.8488 129.157C46.0951 128.911 45.3174 128.745 44.5287 128.663C44.825 132.02 46.3687 135.144 48.8556 137.42C51.3426 139.695 54.5922 140.957 57.9639 140.957C58.3588 140.957 58.7482 140.94 59.1322 140.907C59.1048 140.551 59.091 140.192 59.091 139.83C59.091 139.468 59.1075 139.073 59.1404 138.646C58.7503 138.701 58.3576 138.737 57.9639 138.753V138.712Z" fill="#231F20"/>
</svg>
