<svg width="382" height="125" viewBox="0 0 382 125" fill="none" xmlns="http://www.w3.org/2000/svg">
<path d="M57.8131 0C34.8245 0 14.5883 11.1458 2.81658 28.0222C9.62625 19.56 18.8153 13.3298 29.1997 10.1345C35.7242 7.74647 42.6182 6.52445 49.5664 6.52438C81.3893 6.52438 107.228 31.4475 107.228 62.1882C107.228 92.9289 81.4328 117.852 49.5664 117.852C39.4482 117.871 29.4959 115.284 20.6701 110.338C12.5683 106.237 5.61707 100.183 0.444824 92.7223C11.7379 111.632 33.1925 124.42 57.8131 124.42C94.1729 124.42 123.657 96.5717 123.657 62.21C123.657 27.8482 94.1837 0 57.8131 0Z" fill="#1C3F94"/>
<path d="M48.3153 12.6245C39.047 12.6195 29.9677 15.2441 22.1329 20.1932C14.2982 25.1422 8.02993 32.2123 4.05692 40.5815C1.53285 46.3773 -4.99494 65.2437 11.7706 73.9429C13.8534 74.7395 16.0684 75.1343 18.2984 75.1064C19.5604 75.1064 25.9141 74.878 25.9141 70.4632C25.9141 67.636 23.4444 66.1136 19.3863 63.8083C14.3926 60.9702 8.18031 57.4253 8.18031 48.5848C8.18031 37.602 17.0255 29.925 29.7002 29.925C34.8634 29.7865 39.9828 30.9061 44.6162 33.1872L45.4431 33.6222L42.6361 46.2034L41.1782 45.3334C37.8201 43.2323 33.9448 42.103 29.9831 42.0712C28.1227 42.0712 23.7926 42.4736 23.7926 46.149C23.7926 48.6609 26.1535 50.1289 30.0157 52.3254C35.2597 55.3266 41.7875 59.0346 41.7875 68.6364C41.7875 79.8474 32.4528 87.3722 18.5595 87.3722C14.0765 87.4907 9.61203 86.7525 5.406 85.1974C10.2219 93.8844 17.5578 100.909 26.4472 105.347L66.1905 36.7104L57.4868 31.1212H81.9769L92.2037 83.1966C95.8831 75.738 97.6 67.4652 97.1923 59.1593C96.7845 50.8534 94.2656 42.7883 89.8733 35.7256C85.481 28.6628 79.3602 22.8354 72.0889 18.7934C64.8176 14.7515 56.6356 12.6284 48.3153 12.6245ZM72.8271 48.4108H72.6639C72.0982 49.857 71.3801 51.673 70.8144 52.7604L65.7227 62.9601H74.644L73.3385 52.7495C73.1535 51.5425 72.9033 50.0201 72.8271 48.4108ZM75.188 73.9429H60.9248C60.3373 75.0303 42.4294 106.336 40.4602 109.827C50.1518 111.4 60.0929 110.025 68.9923 105.879C77.8918 101.733 85.3384 95.0084 90.3651 86.5784H77.3095L75.188 73.9429Z" fill="#DA2128"/>
<path d="M180.742 83.2513L188.663 34.5029H208.942C215.024 34.5029 219.822 36.3406 222.749 39.8095C225.392 42.9195 226.382 47.1168 225.599 51.9558V52.0972C223.902 62.6015 214.926 69.3869 202.752 69.3869H195.941L193.7 83.2622L180.742 83.2513ZM204.46 57.8387C208.725 57.8387 211.978 55.4464 212.554 51.8906V51.7601C212.717 51.1071 212.734 50.4262 212.602 49.7663C212.47 49.1064 212.194 48.4838 211.793 47.9433C210.824 46.8559 208.997 46.2034 206.527 46.2034H199.597L197.715 57.8278L204.46 57.8387Z" fill="#1C3F94"/>
<path d="M224.815 83.2729L232.692 34.5249L245.574 34.5358L237.697 83.2729H224.815Z" fill="#1C3F94"/>
<path d="M243.082 83.2727L250.948 34.5356L288.973 34.5465L287.102 46.1055L261.904 46.0947L260.795 52.967L282.967 52.9779L281.107 64.5369L258.934 64.526L257.759 71.7246L283.294 71.7354L281.433 83.2944L243.082 83.2727Z" fill="#1C3F94"/>
<path d="M299.689 83.3052L305.64 46.4424L291.334 46.4315L293.249 34.5571L334.754 34.568L332.84 46.4533H318.522L312.571 83.3052H299.689Z" fill="#1C3F94"/>
<path d="M360.648 83.3275L363.65 64.7655L347.102 64.7547L344.111 83.3166H331.218L339.095 34.5684L351.976 34.5792L349.028 52.8802H365.565L368.524 34.5792L381.406 34.5901L373.54 83.3384L360.648 83.3275Z" fill="#1C3F94"/>
<path d="M134.264 76.3894L139.4 67.4184C139.4 67.4184 149.975 74.4973 157.895 73.6492C158.983 73.5296 164.521 73.4534 164.521 69.5932C164.521 67.1248 162.345 65.7765 158.852 63.7757C154.501 61.2855 149.061 58.1974 149.061 50.4334C149.061 40.8317 156.796 34.1225 167.872 34.1225C172.389 33.9916 176.87 34.9619 180.927 36.9497L181.645 37.3303L179.23 48.4108L177.957 47.6497C175.019 45.8166 171.629 44.8342 168.165 44.8116C166.533 44.8116 162.726 45.1595 162.726 48.3673C162.726 50.5421 164.793 51.847 168.165 53.8043C172.757 56.414 178.468 59.6653 178.468 68.06C178.468 77.8465 170.309 84.4361 158.156 84.4361C155.867 84.4643 153.578 84.3554 151.302 84.1099C149.05 83.8356 146.85 83.2311 144.774 82.3157C144.774 82.3157 143.033 81.5436 141.75 80.8042C140.466 80.0648 139.16 79.3688 138.235 78.8469C137.528 78.4446 134.264 76.3894 134.264 76.3894ZM144.23 82.0003L144.763 82.2069C143.749 81.7751 142.758 81.2924 141.793 80.7607C140.368 79.9886 139.204 79.3253 138.279 78.8034L144.23 82.0003ZM144.807 82.2722L151.335 84.0664L144.807 82.2722Z" fill="#1C3F94"/>
<path d="M157.264 94.2446H160.049L165.924 108.044H162.769L161.518 104.967H155.719L154.468 108.044H151.389L157.264 94.2446ZM160.441 102.313L158.624 97.8657L156.807 102.313H160.441Z" fill="#1C3F94"/>
<path d="M187.574 94.3423H190.838L194.44 100.138L198.041 94.3423H201.305V108.043H198.313V99.1051L194.45 104.955H194.374L190.555 99.1594V108.043H187.574V94.3423Z" fill="#1C3F94"/>
<path d="M224.206 94.3423H234.553V97.0281H227.209V99.8118H233.672V102.498H227.209V105.368H234.651V108.054H224.206V94.3423Z" fill="#1C3F94"/>
<path d="M256.91 94.3427H263.177C263.899 94.2907 264.624 94.3832 265.31 94.6147C265.995 94.8462 266.628 95.2121 267.17 95.6911C267.563 96.1097 267.869 96.602 268.071 97.1395C268.272 97.677 268.366 98.2491 268.345 98.8228C268.391 99.7555 268.127 100.677 267.597 101.446C267.066 102.214 266.296 102.787 265.407 103.074L268.758 107.968H265.233L262.296 103.618H259.924V107.968H256.91V94.3427ZM262.981 100.998C264.45 100.998 265.288 100.215 265.288 99.062C265.288 97.768 264.385 97.1047 262.916 97.1047H259.924V101.041L262.981 100.998Z" fill="#1C3F94"/>
<path d="M290.79 94.3423H293.803V108.043H290.79V94.3423Z" fill="#1C3F94"/>
<path d="M316.204 101.237C316.188 100.297 316.362 99.3628 316.716 98.4916C317.07 97.6204 317.597 96.8299 318.265 96.1675C318.933 95.5051 319.728 94.9847 320.602 94.6374C321.476 94.2902 322.412 94.1234 323.352 94.147C324.357 94.0916 325.362 94.2511 326.3 94.6148C327.238 94.9786 328.088 95.5383 328.792 96.2565L326.877 98.4313C325.957 97.4778 324.699 96.9233 323.374 96.8872C322.829 96.8925 322.29 97.0075 321.791 97.2254C321.291 97.4433 320.84 97.7596 320.466 98.1554C320.091 98.5512 319.8 99.0185 319.61 99.5292C319.42 100.04 319.335 100.584 319.36 101.128C319.321 101.678 319.395 102.23 319.577 102.751C319.758 103.272 320.044 103.75 320.417 104.157C320.789 104.564 321.241 104.891 321.743 105.118C322.246 105.345 322.79 105.467 323.342 105.478C324.02 105.47 324.69 105.324 325.309 105.047C325.929 104.77 326.485 104.369 326.943 103.868L328.858 105.804C328.167 106.611 327.302 107.251 326.327 107.675C325.353 108.099 324.295 108.296 323.233 108.25C322.307 108.265 321.387 108.094 320.528 107.747C319.67 107.4 318.89 106.884 318.234 106.23C317.579 105.575 317.061 104.797 316.713 103.939C316.364 103.081 316.191 102.162 316.204 101.237Z" fill="#1C3F94"/>
<path d="M355.545 94.2446H358.33L364.205 108.044H361.05L359.799 104.967H354.033L352.782 108.044H349.681L355.545 94.2446ZM358.722 102.313L356.905 97.8657L355.121 102.313H358.722Z" fill="#1C3F94"/>
</svg>
