<svg width="285" height="129" viewBox="0 0 285 129" fill="none" xmlns="http://www.w3.org/2000/svg">
<path d="M13.2552 128.787H9.70146C9.45032 128.787 9.34986 128.549 9.23684 128.323L6.12262 122.442H5.87147C5.38173 122.442 4.61574 122.442 4.22646 122.442V128.348C4.22646 128.409 4.21444 128.469 4.19109 128.526C4.16774 128.582 4.13352 128.633 4.09037 128.676C4.04723 128.719 3.99601 128.753 3.93964 128.777C3.88327 128.8 3.82285 128.812 3.76183 128.812H0.722954C0.599728 128.812 0.48155 128.763 0.394416 128.676C0.307282 128.589 0.258331 128.471 0.258331 128.348V112.737C0.258331 111.947 0.584823 111.734 1.30059 111.621C2.86604 111.415 4.44318 111.31 6.02216 111.308C9.97773 111.308 13.0292 112.637 13.0292 116.737V117.038C13.0877 118.031 12.8284 119.017 12.289 119.853C11.7495 120.689 10.9576 121.332 10.028 121.69L13.544 128.235C13.5869 128.312 13.6126 128.398 13.6194 128.486C13.6068 128.674 13.5189 128.787 13.2552 128.787ZM9.04848 116.762C9.04848 115.345 7.95599 114.693 5.99704 114.693C5.67055 114.693 4.46505 114.693 4.18878 114.768V119.22C4.43993 119.22 5.58265 119.22 5.8338 119.22C8.28248 119.22 9.04848 118.593 9.04848 117.013V116.762Z" fill="#231F20"/>
<path d="M19.6092 128.787H16.495C16.4367 128.785 16.3793 128.772 16.3263 128.747C16.2734 128.723 16.2261 128.688 16.1872 128.644C16.1484 128.601 16.1189 128.55 16.1006 128.495C16.0822 128.439 16.0754 128.381 16.0806 128.323V112.022C16.0772 111.966 16.0854 111.909 16.1046 111.856C16.1239 111.803 16.1539 111.755 16.1927 111.713C16.2316 111.672 16.2784 111.64 16.3304 111.617C16.3824 111.595 16.4384 111.583 16.495 111.583H19.6092C19.6674 111.582 19.7253 111.592 19.7794 111.613C19.8336 111.635 19.8827 111.667 19.9239 111.708C19.965 111.749 19.9973 111.798 20.0188 111.852C20.0403 111.906 20.0505 111.964 20.0487 112.022V128.323C20.0504 128.382 20.0404 128.441 20.0192 128.497C19.998 128.552 19.9661 128.603 19.9253 128.646C19.8844 128.689 19.8355 128.724 19.7813 128.748C19.7271 128.772 19.6686 128.785 19.6092 128.787Z" fill="#231F20"/>
<path d="M33.2716 128.599C32.1387 128.881 30.9732 129.012 29.8058 128.987C26.2646 129 22.8616 127.144 22.8616 121.627V118.693C22.8616 113.163 26.2144 111.333 29.743 111.333C30.911 111.312 32.0766 111.447 33.2088 111.734C33.5353 111.822 33.7237 111.922 33.7237 112.248V114.505C33.7312 114.566 33.7253 114.627 33.7062 114.685C33.6872 114.743 33.6555 114.796 33.6135 114.841C33.5715 114.885 33.5202 114.919 33.4633 114.942C33.4063 114.964 33.3452 114.973 33.2842 114.969H33.2088C32.3298 114.894 31.049 114.781 29.7681 114.781C28.1608 114.781 26.8799 115.621 26.8799 118.706V121.627C26.8799 124.712 28.1357 125.552 29.7681 125.552C31.0239 125.552 32.2796 125.439 33.2088 125.364H33.2842C33.3452 125.36 33.4063 125.369 33.4633 125.391C33.5202 125.413 33.5715 125.448 33.6135 125.492C33.6555 125.537 33.6872 125.59 33.7062 125.648C33.7253 125.706 33.7312 125.767 33.7237 125.828V128.085C33.7739 128.398 33.5981 128.511 33.2716 128.599Z" fill="#231F20"/>
<path d="M49.5962 128.787H46.5573C46.4341 128.787 46.3159 128.738 46.2288 128.651C46.1416 128.564 46.0927 128.446 46.0927 128.323V121.627H40.3414V128.335C40.3414 128.458 40.2925 128.576 40.2053 128.663C40.1182 128.751 40 128.799 39.8768 128.799H36.8254C36.7021 128.799 36.584 128.751 36.4968 128.663C36.4097 128.576 36.3607 128.458 36.3607 128.335V112.035C36.3624 111.976 36.3757 111.917 36.3999 111.863C36.4241 111.809 36.4588 111.76 36.502 111.719C36.5451 111.679 36.5959 111.647 36.6514 111.626C36.7069 111.604 36.766 111.594 36.8254 111.596H39.8768C39.9362 111.594 39.9953 111.604 40.0508 111.626C40.1063 111.647 40.157 111.679 40.2002 111.719C40.2433 111.76 40.278 111.809 40.3022 111.863C40.3265 111.917 40.3398 111.976 40.3414 112.035V118.217H46.0927V111.972C46.0943 111.913 46.1076 111.855 46.1319 111.8C46.1561 111.746 46.1908 111.697 46.2339 111.657C46.2771 111.616 46.3278 111.584 46.3833 111.563C46.4388 111.542 46.4979 111.532 46.5573 111.533H49.6087C49.6681 111.532 49.7272 111.542 49.7827 111.563C49.8382 111.584 49.889 111.616 49.9321 111.657C49.9753 111.697 50.01 111.746 50.0342 111.8C50.0584 111.855 50.0717 111.913 50.0734 111.972V128.273C50.0806 128.339 50.0735 128.406 50.0526 128.469C50.0317 128.532 49.9975 128.59 49.9523 128.639C49.907 128.687 49.8518 128.726 49.7904 128.751C49.7289 128.777 49.6627 128.789 49.5962 128.787Z" fill="#231F20"/>
<path d="M68.6457 128.787H65.5566C65.4455 128.774 65.3437 128.719 65.2733 128.632C65.2028 128.545 65.1693 128.434 65.1799 128.323V118.643C65.1799 118.48 65.1045 118.455 65.0669 118.455C65.0292 118.455 64.9538 118.455 64.8785 118.618L62.7814 122.442C62.7141 122.568 62.6119 122.671 62.4872 122.74C62.3625 122.809 62.2205 122.841 62.0782 122.831H60.2574C60.1151 122.841 59.9731 122.809 59.8484 122.74C59.7237 122.671 59.6215 122.568 59.5542 122.442L57.4697 118.618C57.3943 118.505 57.3566 118.455 57.2813 118.455C57.206 118.455 57.1683 118.455 57.1683 118.643V128.323C57.1789 128.434 57.1453 128.545 57.0749 128.632C57.0044 128.719 56.9027 128.774 56.7916 128.787H53.715C53.5266 128.787 53.3257 128.712 53.3257 128.461V112.323C53.3216 112.214 53.341 112.105 53.3825 112.004C53.424 111.903 53.4867 111.812 53.5665 111.737C53.6462 111.662 53.741 111.605 53.8446 111.57C53.9482 111.535 54.0582 111.523 54.1671 111.533H56.3521C56.5664 111.525 56.7783 111.581 56.9614 111.692C57.1445 111.804 57.2907 111.966 57.3818 112.16L60.9355 118.781C61.0234 118.969 61.0987 119.082 61.1866 119.082C61.2745 119.082 61.3499 118.969 61.4503 118.781L65.0041 112.16C65.0938 111.965 65.2397 111.802 65.4231 111.69C65.6065 111.578 65.8192 111.524 66.0338 111.533H68.2188C68.3289 111.526 68.4394 111.542 68.543 111.58C68.6466 111.619 68.7411 111.678 68.8203 111.755C68.8996 111.831 68.9618 111.924 69.0031 112.026C69.0444 112.128 69.0638 112.238 69.0601 112.348V128.461C69.0475 128.712 68.8341 128.787 68.6457 128.787Z" fill="#231F20"/>
<path d="M78.7921 129C74.9621 129 71.9106 126.931 71.9106 121.552V118.793C71.9106 113.402 74.9621 111.333 78.7921 111.333C82.622 111.333 85.6484 113.389 85.6484 118.781V121.539C85.6484 126.931 82.6346 129 78.7921 129ZM81.6802 118.781C81.6802 115.997 80.751 114.806 78.7921 114.806C76.8331 114.806 75.929 115.985 75.929 118.781V121.539C75.929 124.323 76.8331 125.514 78.7921 125.514C80.751 125.514 81.6802 124.336 81.6802 121.539V118.781Z" fill="#231F20"/>
<path d="M101.345 128.787H99.0596C98.8007 128.81 98.5408 128.753 98.3159 128.623C98.0909 128.492 97.912 128.296 97.8039 128.06L92.5047 118.906C92.4168 118.768 92.3666 118.718 92.2912 118.718C92.2159 118.718 92.1782 118.718 92.1782 118.906V128.31C92.1782 128.433 92.1292 128.551 92.0421 128.638C91.955 128.725 91.8368 128.774 91.7136 128.774H89.0137C88.8905 128.774 88.7723 128.725 88.6852 128.638C88.5981 128.551 88.5491 128.433 88.5491 128.31V112.424C88.5618 112.202 88.6583 111.993 88.8191 111.839C88.9799 111.686 89.1931 111.599 89.4156 111.596H91.7638C92.2284 111.596 92.467 111.822 92.7433 112.311L98.256 121.878C98.3439 122.016 98.369 122.066 98.4443 122.066C98.5197 122.066 98.5573 122.066 98.5573 121.853V111.972C98.559 111.913 98.5723 111.855 98.5965 111.8C98.6207 111.746 98.6554 111.697 98.6986 111.657C98.7417 111.616 98.7925 111.584 98.848 111.563C98.9035 111.542 98.9626 111.532 99.022 111.533H101.772C101.831 111.532 101.891 111.542 101.946 111.563C102.001 111.584 102.052 111.616 102.095 111.657C102.139 111.697 102.173 111.746 102.197 111.8C102.222 111.855 102.235 111.913 102.237 111.972V127.897C102.233 128.132 102.138 128.356 101.972 128.522C101.805 128.689 101.581 128.784 101.345 128.787Z" fill="#231F20"/>
<path d="M111.14 129C109.484 129.001 107.831 128.883 106.192 128.649C106.092 128.647 105.993 128.623 105.902 128.579C105.812 128.535 105.732 128.473 105.667 128.396C105.603 128.318 105.556 128.228 105.53 128.131C105.503 128.034 105.498 127.933 105.514 127.834V112.486C105.498 112.387 105.503 112.286 105.53 112.189C105.556 112.092 105.603 112.002 105.667 111.925C105.732 111.847 105.812 111.785 105.902 111.741C105.993 111.697 106.092 111.674 106.192 111.671C107.831 111.437 109.484 111.319 111.14 111.32C115.773 111.32 118.561 113.765 118.561 118.655V121.627C118.561 126.555 115.786 129 111.14 129ZM114.53 118.668C114.53 115.533 113.187 114.693 111.09 114.693C110.512 114.693 109.758 114.693 109.445 114.693V125.539C109.771 125.539 110.512 125.539 111.09 125.539C113.275 125.627 114.53 124.799 114.53 121.627V118.668Z" fill="#231F20"/>
<path d="M133.906 129C130.064 129 127.025 126.931 127.025 121.552V118.793C127.025 113.402 130.076 111.333 133.906 111.333C137.736 111.333 140.788 113.402 140.788 118.793V121.552C140.788 126.931 137.749 129 133.906 129ZM136.794 118.781C136.794 115.997 135.865 114.806 133.906 114.806C131.947 114.806 131.043 115.985 131.043 118.781V121.539C131.043 124.323 131.947 125.514 133.906 125.514C135.865 125.514 136.794 124.336 136.794 121.539V118.781Z" fill="#231F20"/>
<path d="M153.119 128.699C151.873 128.898 150.614 128.999 149.352 129C146.351 129 143.676 128.235 143.676 123.984V111.997C143.676 111.936 143.688 111.876 143.711 111.82C143.735 111.763 143.769 111.712 143.812 111.669C143.855 111.626 143.906 111.592 143.963 111.569C144.019 111.545 144.08 111.533 144.141 111.533H147.179C147.24 111.533 147.301 111.545 147.357 111.569C147.414 111.592 147.465 111.626 147.508 111.669C147.551 111.712 147.585 111.763 147.609 111.82C147.632 111.876 147.644 111.936 147.644 111.997V124.01C147.644 125.263 148.033 125.589 149.126 125.589H153.119C153.242 125.589 153.36 125.638 153.448 125.725C153.535 125.812 153.584 125.93 153.584 126.053V128.21C153.596 128.511 153.458 128.624 153.119 128.699Z" fill="#231F20"/>
<path d="M166.417 112.047L162.901 120.085C162.783 120.469 162.589 120.826 162.33 121.134C162.072 121.442 161.753 121.695 161.394 121.878V128.335C161.394 128.396 161.382 128.457 161.359 128.513C161.336 128.569 161.301 128.62 161.258 128.663C161.215 128.707 161.164 128.741 161.108 128.764C161.051 128.787 160.991 128.799 160.93 128.799H157.878C157.817 128.799 157.757 128.787 157.701 128.764C157.644 128.741 157.593 128.707 157.55 128.663C157.507 128.62 157.472 128.569 157.449 128.513C157.426 128.457 157.414 128.396 157.414 128.335V121.865C157.051 121.685 156.728 121.433 156.465 121.125C156.201 120.817 156.003 120.459 155.882 120.072L152.366 112.035C152.355 111.981 152.355 111.926 152.366 111.872C152.366 111.825 152.375 111.778 152.394 111.735C152.412 111.691 152.439 111.652 152.473 111.619C152.507 111.586 152.547 111.561 152.591 111.544C152.635 111.527 152.683 111.519 152.73 111.521H156.083C156.191 111.528 156.295 111.57 156.378 111.64C156.462 111.709 156.521 111.804 156.547 111.91L159.059 118.455C159.172 118.756 159.247 118.806 159.41 118.806C159.574 118.806 159.636 118.806 159.762 118.455L162.273 111.91C162.3 111.804 162.359 111.709 162.442 111.64C162.526 111.57 162.629 111.528 162.738 111.521H166.015C166.064 111.517 166.112 111.524 166.158 111.54C166.203 111.556 166.245 111.581 166.28 111.614C166.316 111.647 166.344 111.687 166.363 111.731C166.382 111.776 166.392 111.824 166.392 111.872C166.414 111.928 166.423 111.988 166.417 112.047Z" fill="#231F20"/>
<path d="M183.885 128.787H180.821C180.709 128.774 180.608 128.719 180.537 128.632C180.467 128.545 180.433 128.434 180.444 128.323V118.643C180.444 118.48 180.381 118.455 180.331 118.455C180.281 118.455 180.218 118.455 180.143 118.618L178.045 122.442C177.984 122.581 177.881 122.698 177.751 122.776C177.62 122.855 177.469 122.891 177.317 122.881H175.459C175.317 122.889 175.175 122.857 175.051 122.788C174.926 122.719 174.824 122.617 174.755 122.492L172.671 118.668C172.608 118.555 172.558 118.505 172.482 118.505C172.407 118.505 172.369 118.505 172.369 118.693V128.373C172.38 128.484 172.347 128.595 172.276 128.682C172.206 128.769 172.104 128.824 171.993 128.837H168.916C168.728 128.837 168.527 128.762 168.527 128.511V112.323C168.523 112.214 168.542 112.105 168.584 112.004C168.625 111.903 168.688 111.812 168.768 111.737C168.847 111.662 168.942 111.605 169.046 111.57C169.149 111.535 169.259 111.523 169.368 111.533H171.553C171.768 111.525 171.979 111.581 172.163 111.692C172.346 111.804 172.492 111.966 172.583 112.16L176.137 118.781C176.225 118.969 176.3 119.082 176.388 119.082C176.476 119.082 176.551 118.969 176.639 118.781L180.193 112.16C180.282 111.965 180.428 111.802 180.612 111.69C180.795 111.578 181.008 111.524 181.222 111.533H183.407C183.518 111.526 183.628 111.542 183.732 111.58C183.835 111.619 183.93 111.678 184.009 111.755C184.088 111.831 184.15 111.924 184.192 112.026C184.233 112.128 184.252 112.238 184.249 112.348V128.461C184.274 128.712 184.073 128.787 183.885 128.787Z" fill="#231F20"/>
<path d="M193.353 122.743C192.8 122.743 192.097 122.743 191.469 122.68V128.323C191.469 128.446 191.42 128.564 191.333 128.651C191.246 128.738 191.128 128.787 191.005 128.787H188.003C187.944 128.789 187.885 128.778 187.829 128.757C187.774 128.736 187.723 128.704 187.68 128.664C187.637 128.623 187.602 128.574 187.578 128.52C187.554 128.466 187.54 128.407 187.539 128.348V112.737C187.539 111.947 187.865 111.734 188.581 111.621C190.146 111.408 191.723 111.303 193.303 111.308C196.819 111.308 200.284 112.562 200.284 116.9V117.113C200.284 121.477 196.819 122.743 193.353 122.743ZM196.329 116.913C196.329 115.27 195.299 114.618 193.353 114.618C193.026 114.618 191.745 114.618 191.469 114.681V119.42C191.72 119.42 193.102 119.42 193.353 119.42C195.425 119.42 196.329 118.655 196.329 117.076V116.913Z" fill="#231F20"/>
<path d="M206.199 128.787H203.085C203.026 128.785 202.969 128.772 202.916 128.747C202.863 128.723 202.816 128.688 202.777 128.644C202.738 128.601 202.709 128.55 202.69 128.495C202.672 128.439 202.665 128.381 202.67 128.323V112.022C202.665 111.966 202.672 111.908 202.69 111.854C202.709 111.8 202.739 111.751 202.778 111.709C202.817 111.668 202.865 111.635 202.918 111.613C202.971 111.592 203.028 111.581 203.085 111.583H206.199C206.257 111.582 206.315 111.592 206.369 111.613C206.423 111.635 206.472 111.667 206.514 111.708C206.555 111.749 206.587 111.798 206.609 111.852C206.63 111.906 206.64 111.964 206.639 112.022V128.323C206.64 128.382 206.63 128.441 206.609 128.497C206.588 128.552 206.556 128.603 206.515 128.646C206.474 128.689 206.425 128.724 206.371 128.748C206.317 128.772 206.258 128.785 206.199 128.787Z" fill="#231F20"/>
<path d="M219.874 128.599C218.741 128.88 217.576 129.011 216.408 128.987C212.867 128.987 209.527 127.132 209.527 121.602V118.693C209.527 113.163 212.88 111.333 216.408 111.333C217.576 111.312 218.742 111.447 219.874 111.734C220.2 111.822 220.389 111.922 220.389 112.248V114.505C220.396 114.566 220.39 114.627 220.371 114.685C220.352 114.743 220.321 114.796 220.279 114.841C220.237 114.885 220.185 114.919 220.128 114.942C220.071 114.964 220.01 114.973 219.949 114.969H219.874C218.982 114.894 217.714 114.781 216.433 114.781C214.826 114.781 213.558 115.621 213.558 118.706V121.627C213.558 124.712 214.813 125.552 216.433 125.552C217.689 125.552 218.945 125.439 219.874 125.364H219.949C220.01 125.36 220.071 125.369 220.128 125.391C220.185 125.413 220.237 125.448 220.279 125.492C220.321 125.537 220.352 125.59 220.371 125.648C220.39 125.706 220.396 125.767 220.389 125.828V128.085C220.389 128.398 220.2 128.511 219.874 128.599Z" fill="#231F20"/>
<path d="M235.508 129C231.678 129 228.626 126.931 228.626 121.552V118.793C228.626 113.402 231.678 111.333 235.508 111.333C239.338 111.333 242.389 113.402 242.389 118.793V121.552C242.389 126.931 239.338 129 235.508 129ZM238.396 118.781C238.396 115.997 237.467 114.806 235.508 114.806C233.549 114.806 232.645 115.985 232.645 118.781V121.539C232.645 124.323 233.549 125.514 235.508 125.514C237.467 125.514 238.396 124.336 238.396 121.539V118.781Z" fill="#231F20"/>
<path d="M258.35 112.022L254.884 126.417C254.356 128.636 252.649 128.987 251.041 128.987C249.434 128.987 247.714 128.636 247.186 126.417L243.72 112.022C243.72 112.022 243.72 111.947 243.72 111.91C243.722 111.857 243.734 111.806 243.756 111.759C243.778 111.711 243.809 111.669 243.848 111.634C243.886 111.598 243.932 111.572 243.981 111.554C244.03 111.537 244.083 111.53 244.135 111.533H247.362C247.476 111.538 247.584 111.582 247.669 111.657C247.753 111.732 247.809 111.835 247.827 111.947L250.727 125.389C250.727 125.652 250.84 125.74 251.054 125.74C251.267 125.74 251.343 125.652 251.38 125.389L254.281 111.997C254.295 111.888 254.347 111.788 254.427 111.712C254.507 111.637 254.611 111.591 254.721 111.583H257.973C258.024 111.58 258.075 111.587 258.123 111.605C258.171 111.622 258.215 111.649 258.252 111.685C258.288 111.72 258.317 111.763 258.336 111.811C258.355 111.858 258.364 111.909 258.362 111.96C258.357 111.98 258.353 112.001 258.35 112.022Z" fill="#231F20"/>
<path d="M272.452 128.787H269.199C269.087 128.78 268.979 128.736 268.895 128.66C268.811 128.585 268.754 128.484 268.735 128.373L267.893 124.611H263.134L262.293 128.373C262.275 128.485 262.22 128.588 262.135 128.663C262.05 128.739 261.942 128.782 261.828 128.787H258.563C258.512 128.79 258.461 128.783 258.413 128.766C258.365 128.748 258.321 128.721 258.285 128.685C258.248 128.65 258.219 128.607 258.2 128.56C258.181 128.512 258.172 128.462 258.174 128.411C258.176 128.373 258.176 128.335 258.174 128.298L261.64 113.903C262.167 111.671 263.9 111.32 265.495 111.32C267.09 111.32 268.797 111.671 269.337 113.903L272.803 128.298C272.801 128.335 272.801 128.373 272.803 128.411C272.805 128.458 272.797 128.506 272.78 128.551C272.764 128.596 272.738 128.637 272.706 128.672C272.673 128.706 272.634 128.735 272.59 128.754C272.547 128.774 272.499 128.785 272.452 128.787ZM265.821 114.994C265.821 114.768 265.733 114.643 265.52 114.643C265.307 114.643 265.244 114.756 265.193 114.994L263.775 121.401H267.24L265.821 114.994Z" fill="#231F20"/>
<path d="M283.917 128.699C282.671 128.898 281.411 128.999 280.149 129C277.148 129 274.473 128.235 274.473 123.984V111.997C274.473 111.936 274.485 111.876 274.509 111.82C274.532 111.763 274.566 111.712 274.609 111.669C274.653 111.626 274.704 111.592 274.76 111.569C274.817 111.545 274.877 111.533 274.938 111.533H277.989C278.05 111.533 278.111 111.545 278.167 111.569C278.224 111.592 278.275 111.626 278.318 111.669C278.361 111.712 278.395 111.763 278.419 111.82C278.442 111.876 278.454 111.936 278.454 111.997V124.01C278.454 125.263 278.843 125.589 279.936 125.589H283.942C284.065 125.589 284.183 125.638 284.27 125.725C284.357 125.812 284.406 125.93 284.406 126.053V128.21C284.394 128.511 284.256 128.624 283.917 128.699Z" fill="#231F20"/>
<path d="M221.82 69.9293L215.793 90.2047H241.058C235.081 72.6377 215.667 32.3879 193.83 0C183.194 1.54228 172.357 3.47327 161.294 6.0312C175.48 23.361 187.334 42.4694 196.555 62.8699C204.602 66.3975 213.108 68.7741 221.82 69.9293Z" fill="#231F20"/>
<path fill-rule="evenodd" clip-rule="evenodd" d="M118.674 69.8792C116.74 69.9544 114.832 70.0547 112.948 70.1801L108.101 90.2799H123.584L128.507 69.8666C125.317 69.7412 122.065 69.7538 118.674 69.8792ZM95.3929 71.8729L90.9476 90.2799H104.572L109.369 70.4936C104.371 70.8071 99.6624 71.3212 95.3929 71.8729ZM132.023 69.9043L127.088 90.2799H141.981L146.627 71.0704C142.295 70.5312 137.334 70.1174 132.023 69.9043ZM74.1584 75.4339L78.114 90.2799H87.4692L91.7889 72.4246C81.2031 73.854 74.1584 75.4339 74.1584 75.4339ZM150.08 71.4716L145.534 90.2799H159.599L163.655 73.691C163.655 73.691 158.343 72.4622 150.08 71.4716Z" fill="#231F20"/>
<path d="M187.815 58.9327L189.724 59.7728C180.413 41.1174 169.095 23.5303 155.97 7.32271C145.038 10.0296 134.267 13.3493 123.71 17.266C132.961 27.58 141.36 38.6253 148.824 50.2934C167.183 51.6351 178.736 55.1711 187.815 58.9327Z" fill="#231F20"/>
<path d="M135.978 49.7417C138.176 49.7417 140.26 49.8546 142.257 49.9298C135.146 39.1446 127.314 28.8518 118.812 19.1218C108.7 23.0963 98.8145 27.6255 89.2021 32.6889C95.1399 38.9896 100.756 45.585 106.029 52.4501C115.899 50.5702 125.93 49.663 135.978 49.7417Z" fill="#231F20"/>
<path d="M74.0203 61.7289C82.5752 58.2441 91.4203 55.5169 100.453 53.5786C95.5394 47.1754 90.3574 40.9812 84.9075 34.996C76.0546 39.836 67.0384 45.303 57.8589 51.5599C61.6261 55.5347 65.2678 59.66 68.7964 63.848C70.4289 63.196 72.1618 62.5063 74.0203 61.7289Z" fill="#231F20"/>
<path d="M49.7846 70.3431C54.5935 69.1145 59.3167 67.5731 63.9241 65.7288C60.6969 61.8418 57.3943 57.9923 53.9787 54.2557C45.875 59.9317 37.6332 66.2011 29.2533 73.0641C34.4018 78.5477 39.295 84.2446 43.9328 90.1545H59.1775L49.7846 70.3431Z" fill="#231F20"/>
</svg>
