<svg width="250" height="181" viewBox="0 0 250 181" fill="none" xmlns="http://www.w3.org/2000/svg">
<path d="M248.405 58.172C248.263 58.7195 247.917 59.8976 247.917 59.8976C247.917 59.8976 233.814 122.152 128.889 128.335H128.621C128.908 128.443 129.201 128.533 129.499 128.604C138.808 130.757 148.332 131.84 157.885 131.831C208.316 131.831 249.2 102.784 249.2 66.9516C249.212 64.0065 248.946 61.0669 248.405 58.172Z" fill="#262358"/>
<path d="M5.43196 112.174L12.0224 130.726L18.6958 112.174H22.73L12.8517 137.643H9.97356L0.0708313 112.174H5.43196Z" fill="#262358"/>
<path d="M29.4229 117.39H24.9105V137.628H29.4229V117.39Z" fill="#262358"/>
<path d="M29.4229 111.118H24.9105V115.019H29.4229V111.118Z" fill="#262358"/>
<path d="M38.2427 110.923V137.628H33.7255V110.923H38.2427Z" fill="#262358"/>
<path d="M46.9552 110.923V137.628H42.4429V110.923H46.9552Z" fill="#262358"/>
<path d="M91.2345 110.918V137.638H87.3319L87.1368 134.548C86.5943 135.598 85.7718 136.477 84.7607 137.086C83.7496 137.696 82.5896 138.012 81.4098 138C76.6926 138 74.3608 133.732 74.3608 128.736C74.3608 122.327 78.0341 119.394 81.6781 119.394C82.7363 119.359 83.7829 119.625 84.6958 120.162C85.6087 120.7 86.3504 121.486 86.8344 122.43V110.918H91.2345ZM79.2732 128.697C79.2732 131.342 79.8 135.091 82.9806 135.091C86.4734 135.091 86.8831 130.403 86.8831 128.594C86.8831 125.925 86.2685 122.298 83.1318 122.298C80.9317 122.298 79.2927 124.39 79.2927 128.653L79.2732 128.697Z" fill="#262358"/>
<path d="M59.4287 135.453C56.9896 135.453 54.931 133.781 54.5993 129.792C58.4064 129.665 62.1725 128.963 65.7704 127.71C65.7704 125.608 65.2825 119.512 58.2872 119.512C53.6578 119.512 49.9943 123.339 49.9943 128.898C49.9943 134.182 53.6334 138 58.6189 138C61.5458 138 63.7166 136.812 65.0142 136.118L63.8044 133.942C62.7069 134.578 61.0922 135.453 59.4287 135.453ZM58.3848 121.765C60.0238 121.765 61.5605 122.983 61.7068 126.238C59.3948 126.933 56.9935 127.284 54.5798 127.279C54.9505 122.748 56.7798 121.756 58.3799 121.756L58.3848 121.765Z" fill="#262358"/>
<path d="M103.537 135.453C101.098 135.453 99.0444 133.781 98.7078 129.792C102.516 129.665 106.284 128.963 109.884 127.71C109.884 125.608 109.396 119.512 102.401 119.512C97.7664 119.512 94.0833 123.339 94.0833 128.898C94.0833 134.182 97.7273 138 102.708 138C105.635 138 107.806 136.812 109.098 136.118L107.918 133.942C106.82 134.578 105.21 135.453 103.537 135.453ZM102.498 121.765C104.132 121.765 105.669 122.983 105.815 126.238C103.51 126.933 101.115 127.286 98.7078 127.284C99.0639 122.748 100.893 121.756 102.503 121.756L102.498 121.765Z" fill="#262358"/>
<path d="M234.834 42.6611C229.878 43.238 219.375 43.6388 205.35 39.6743C185.769 33.6322 174.671 30.4548 141.543 41.4097C146.602 38.0171 159.939 29.9953 175.691 27.8101C185.627 26.402 195.752 27.2371 205.326 30.2543C215.173 32.9847 225.396 34.1038 235.6 33.5687C235.517 33.4611 235.434 33.3536 235.346 33.2509L235.414 33.2998C234.77 32.4981 232.726 30.4157 231.965 29.6482H232L231.717 29.3793L231.678 29.3402C213.282 11.6491 182.266 0 147.1 0C90.6345 0 44.8673 30.0148 44.8673 67.0347C44.8833 73.3381 46.1969 79.5703 48.726 85.3418C48.6625 84.9996 48.604 84.6574 48.5503 84.3103C48.4495 83.6325 48.3682 82.9563 48.3064 82.2817C48.2674 82.1203 48.2186 81.9639 48.1796 81.7928C46.6917 61.1051 62.5459 37.6407 99.7567 26.2312C120.094 20.0034 135.963 19.5536 143.953 19.9203C107.572 28.3528 81.6928 47.3784 84.4977 64.8398C87.5856 84.0806 124.328 94.1703 166.568 87.3265C187.476 83.9584 205.779 77.0608 218.589 68.6528C217.565 68.8744 216.515 69.0748 215.438 69.2541C210.501 69.9775 200.013 70.6815 185.881 67.1325C166.129 61.6673 154.949 58.8222 122.152 70.7352C127.114 67.196 140.202 58.788 155.9 56.1433C165.793 54.4527 175.938 54.9988 185.593 57.7419C206.823 62.8062 222.941 59.8537 231.58 57.1846C234.116 56.443 236.553 55.3975 238.839 54.0707C239.39 53.3032 240.171 52.306 240.639 51.5336C230.092 56.5638 216.404 58.8369 197.925 53.7334C186.315 50.5266 177.822 48.0335 166.881 48.493C150.119 48.6592 137.49 52.8926 132.245 55.3808C131.972 55.4834 132.46 55.2781 132.192 55.3808C132.192 55.3808 159.29 33.422 197.589 44.2499C214.477 49.0258 229.521 47.3296 241.102 43.5019C240.814 42.9495 240.522 42.4411 240.239 41.9719H240.214L239.99 41.6346L238.039 42.1234C236.982 42.3352 235.914 42.5145 234.834 42.6611Z" fill="#262358"/>
<path d="M174.161 180.299C173.924 176.613 173.971 174.54 173.971 171.103V155.064H168.27V167.193C168.27 168.798 168.27 171.303 167.59 173.079C166.718 175.347 164.913 176.726 162.625 176.726C161.349 176.726 159.705 176.227 158.898 175.128C158.045 173.947 158.026 172.477 158.026 170.503V155.076H152.153V170.927C152.153 173.207 152.265 175.075 153.084 176.673C154.187 178.929 156.41 180.822 160.299 180.822C163.316 180.822 166.714 179.583 168.761 175.95C168.761 175.95 168.792 178.394 168.925 180.311L174.161 180.299Z" fill="#262358"/>
<path d="M75.6463 155.898H70.0088V180.364H75.6463V155.898Z" fill="#262358"/>
<path d="M75.6463 148.707H70.0088V153.685H75.6463V148.707Z" fill="#262358"/>
<path d="M118.292 177.23C114.814 177.23 111.845 174.8 111.362 169.018C117.596 168.789 123.41 167.468 127.394 165.985C127.394 162.929 126.712 154.085 116.658 154.085C110.006 154.085 104.727 159.646 104.727 167.711C104.727 175.386 109.954 180.935 117.097 180.935C121.264 180.935 124.405 179.202 126.268 178.194L124.571 175.061C122.994 175.96 120.685 177.23 118.292 177.23ZM116.8 157.332C119.143 157.332 121.345 159.099 121.552 163.84C118.246 164.853 114.811 165.365 111.358 165.359C111.871 158.778 114.496 157.332 116.8 157.332Z" fill="#262358"/>
<path d="M101.297 158.829C100.218 156.57 97.9707 154.68 94.1363 154.68C91.1762 154.68 87.8526 155.922 85.8404 159.554C85.8404 159.554 85.7667 157.913 85.6408 155.389H80.1078V180.301H86.3084V168.292C86.3084 166.687 86.3084 164.194 86.9736 162.408C87.8288 160.138 89.6011 158.761 91.8414 158.761C93.0934 158.761 94.6542 159.26 95.4453 160.362C96.2815 161.541 96.3006 163.013 96.3006 164.987V180.299H102.202V164.563C102.209 162.295 102.097 160.424 101.297 158.829Z" fill="#262358"/>
<path d="M65.9915 176.68C65.3421 176.955 64.6376 177.068 63.9365 177.011C61.8222 176.808 61.3351 174.938 61.3351 171.754V159.593H65.7706V155.823H61.0904V148.413H55.1203V155.821H52.9204V159.451H54.9493V172.85C54.9493 177.594 57.1587 180.889 61.7746 180.761C63.5897 180.711 65.2289 180.537 66.7921 179.841L65.9915 176.68Z" fill="#262358"/>
<path d="M143.087 164.346V162.876C143.087 158.238 137.274 155.946 131.587 160.429L129.546 157.392C134.635 153.234 144.971 152 147.974 158.566C148.594 159.918 148.889 161.039 148.889 163.642V171.115C148.889 173.713 148.799 176.471 149.231 180.311H143.698C143.567 178.838 143.558 176.507 143.558 176.507C141.976 179.317 138.673 180.822 134.974 180.822C129.841 180.822 127.847 177.447 127.847 174.034C127.852 168.704 133.722 165.257 143.087 164.346ZM133.485 173.395C133.468 175.784 135.59 177.047 137.524 177.047C138.456 177.061 139.374 176.807 140.17 176.313C140.966 175.82 141.608 175.107 142.021 174.258C142.971 172.462 143.099 170.416 143.099 167.904V167.075C138.904 167.728 133.492 168.832 133.492 173.397L133.485 173.395Z" fill="#262358"/>
<path d="M44.7338 164.346V162.876C44.7338 158.238 38.9205 155.946 33.2331 160.429L31.1924 157.392C36.2811 153.234 46.6177 152 49.6206 158.566C50.2383 159.918 50.5376 161.039 50.5376 163.642V171.115C50.5376 173.713 50.4473 176.471 50.8773 180.311H45.342C45.209 178.838 45.2018 176.507 45.2018 176.507C43.622 179.317 40.3198 180.822 36.6161 180.822C31.4846 180.822 29.489 177.447 29.489 174.034C29.4985 168.704 35.3665 165.257 44.7338 164.346ZM35.136 173.397C35.1194 175.786 37.2409 177.049 39.1747 177.049C40.108 177.064 41.0263 176.81 41.8229 176.316C42.6194 175.823 43.2614 175.11 43.6743 174.26C44.6245 172.465 44.7504 170.418 44.7504 167.906V167.077C40.5478 167.728 35.136 168.832 35.136 173.397Z" fill="#262358"/>
<path d="M14.6101 166.467H21.7371V175.615C19.9367 176.551 17.9131 176.954 15.8977 176.777C9.20774 176.133 7.15039 168.808 7.15039 163.915C7.15039 156.004 10.5476 150.445 18.815 150.445C21.6041 150.445 23.1364 151.058 24.8445 151.983L26.4101 147.931C24.0344 146.625 21.73 145.95 17.9907 146.003C8.14818 146.15 0.0708313 152.967 0.0708313 163.686C0.0708313 173.86 5.62044 181 16.14 181C20.0637 181.01 23.8976 179.809 27.1323 177.555V162.743H15.4225L14.6101 166.467Z" fill="#262358"/>
</svg>
