<svg width="253" height="164" viewBox="0 0 253 164" fill="none" xmlns="http://www.w3.org/2000/svg">
<path d="M228.938 87.932H227.152V87.3021H231.446V87.932H229.661V92.6174H228.925L228.938 87.932Z" fill="#E5B53B"/>
<path d="M237.08 87.7874L235.373 92.5646H234.677L232.983 87.7874V92.5646H232.247V87.3149H233.561L235.097 91.6984L236.594 87.3149H237.828V92.5646H237.093L237.08 87.7874Z" fill="#E5B53B"/>
<path d="M240.717 87.263L239.062 92.5126H238.577L240.231 87.263H240.717Z" fill="#E5B53B"/>
<path d="M246.364 87.7874L244.657 92.5646H243.974L242.28 87.7874V92.5646H241.545V87.3149H242.858L244.394 91.6984L245.904 87.3149H247.126V92.5646H246.364V87.7874Z" fill="#E5B53B"/>
<path d="M251.288 88.6273C251.235 88.3738 251.091 88.1486 250.883 87.9939C250.675 87.8392 250.417 87.7658 250.159 87.7874C248.846 87.7874 248.61 88.9817 248.61 89.9266C248.61 90.8716 248.938 92.0527 250.093 92.0527C250.358 92.0815 250.623 92.0117 250.839 91.8566C251.055 91.7016 251.205 91.4722 251.262 91.2128H252.037C251.948 91.666 251.692 92.0694 251.32 92.3439C250.948 92.6183 250.487 92.7438 250.028 92.6958C248.465 92.6958 247.835 91.3834 247.835 89.9266C247.835 88.4698 248.399 87.1049 250.185 87.1574C251.21 87.1574 251.971 87.6824 252.05 88.6273H251.288Z" fill="#E5B53B"/>
<path d="M245.261 70.5817C244.246 70.719 243.213 70.5972 242.257 70.2277C241.302 69.8583 240.456 69.2531 239.798 68.4687C237.802 65.8438 242.884 52.9559 243.541 51.0135C243.541 51.0135 235.924 53.7434 231.328 53.809C229.437 53.809 227.888 53.5859 227.389 52.8509C226.076 51.2104 227.126 46.7744 227.152 45.5539L215.662 57.8512L214.507 58.9668C213.653 59.7936 212.038 59.623 212.655 56.8669C213.679 52.1947 218.183 28.8337 218.183 28.8337C218.183 28.8337 211.907 34.1621 209.911 33.8734C208.597 33.6896 207.783 32.5609 206.943 31.2485C205.393 28.6237 197.751 12.9665 197.751 12.9665C197.751 12.9665 190.095 28.8468 188.335 31.6029C187.547 32.8365 186.654 34.5689 184.133 33.5321C181.735 32.2047 179.475 30.6441 177.383 28.873C177.383 28.873 180.01 42.2597 180.666 43.7952C181.533 45.8032 194.271 38.5456 194.231 38.5456C194.192 38.5456 185.459 65.5551 186.786 68.1012C188.335 71.0804 203.857 69.7942 203.857 69.7549C203.857 69.7155 185.551 83.9158 167.705 97.3156C171.645 96.5151 190.988 93.2734 193.719 94.7827C195.571 95.8063 195.269 101.948 195.269 101.948H200.587C200.587 101.948 200.364 95.9113 202.137 94.8352C205.157 92.9978 225.957 97.46 225.957 97.46L218.341 87.2888L245.261 70.5817Z" fill="#E5B53B"/>
<path d="M35.8377 87.2625L28.2213 97.4337C28.2213 97.4337 49.0218 92.9321 52.0421 94.8089C53.8149 95.8851 53.5916 101.922 53.5916 101.922H58.91C58.91 101.922 58.5817 95.8063 60.4726 94.7301C63.204 93.2209 82.5994 96.4757 86.4864 97.2631C68.6274 83.8633 50.335 69.7023 50.335 69.7023C50.335 69.7023 65.8697 71.0147 67.4061 68.0487C68.7193 65.4895 59.9605 38.493 59.9605 38.493C59.9605 38.493 72.6588 45.7507 73.5255 43.7427C74.1952 42.2072 76.8084 28.8205 76.8084 28.8205C74.7104 30.6025 72.4407 32.172 70.0324 33.5059C67.5112 34.5427 66.6182 32.8103 65.8303 31.5766C64.0707 28.873 56.4149 12.9403 56.4149 12.9403C56.4149 12.9403 48.7986 28.6893 47.2228 31.2222C46.3824 32.6003 45.5813 33.6896 44.255 33.8471C42.2853 34.1227 36.0084 28.873 36.0084 28.873C36.0084 28.873 40.5257 52.1816 41.5105 56.8538C42.1277 59.6098 40.5125 59.7936 39.6721 58.9536L38.5165 57.8381L27.0657 45.5538C27.0657 46.7744 28.09 51.2104 26.8425 52.8509C26.291 53.5858 24.7414 53.8352 22.903 53.809C18.3069 53.7433 10.6906 51.0135 10.6906 51.0135C11.3472 52.9559 16.4291 65.7913 14.4331 68.4687C13.7725 69.2572 12.9222 69.8648 11.9619 70.2345C11.0017 70.6041 9.9632 70.7236 8.94406 70.5816L35.8377 87.2625Z" fill="#E5B53B"/>
<path d="M187.889 75.4115C187.889 75.4115 182.557 76.0809 180.115 72.6423C177.672 69.2038 184.054 52.3392 184.829 49.8063C184.829 49.8063 175.23 53.376 169.426 53.4679C167.049 53.4679 165.079 53.1792 164.396 52.1555C162.82 50.0031 164.068 44.2022 164.107 42.6142L149.663 58.7044L148.205 60.1612C147.128 61.2505 145.093 61.0143 145.881 57.4052C147.194 51.2893 152.854 20.7362 152.854 20.7362C152.854 20.7362 144.975 27.7051 142.427 27.2983C140.746 27.0489 139.801 25.6315 138.671 23.8204C136.675 20.5656 127.076 0 127.076 0C127.076 0 117.477 20.5656 115.52 23.9123C114.457 25.7234 113.459 27.1408 111.778 27.3902C109.27 27.7576 101.351 20.8281 101.351 20.8281C101.351 20.8281 107.05 51.3812 108.324 57.497C109.112 61.1062 107.011 61.3424 106 60.2531L104.542 58.7569L90.0975 42.6667C90.0975 44.2679 91.4106 50.0556 89.8086 52.208C89.1257 53.1792 87.1822 53.5204 84.7792 53.5204C78.9356 53.376 69.3232 49.8719 69.3232 49.8719C70.1505 52.4048 76.5587 69.2038 74.0375 72.708C71.5162 76.2121 66.2635 75.4771 66.2635 75.4771L96.4663 97.3027L86.8146 110.558C86.8146 110.558 117.74 104.665 121.613 107.08C123.846 108.484 123.57 115.742 123.57 115.742H130.674C130.674 115.742 130.398 108.498 132.631 107.08C136.452 104.665 167.39 110.558 167.39 110.558L157.791 97.2502L187.889 75.4115Z" fill="#E5B53B"/>
<path d="M18.4906 131.649C18.5035 132.806 18.2822 133.955 17.8399 135.025C17.3977 136.096 16.7436 137.066 15.917 137.877C15.0905 138.688 14.1084 139.325 13.0297 139.747C11.951 140.17 10.798 140.37 9.6399 140.337C8.47705 140.392 7.31542 140.206 6.22797 139.79C5.14052 139.375 4.15075 138.739 3.32082 137.923C2.4909 137.108 1.83875 136.129 1.40533 135.049C0.971924 133.969 0.766617 132.811 0.80231 131.649C0.791447 130.491 1.0135 129.343 1.45529 128.273C1.89707 127.203 2.54956 126.233 3.37397 125.42C4.19839 124.607 5.17791 123.968 6.25433 123.541C7.33074 123.114 8.48207 122.908 9.6399 122.934C10.8076 122.871 11.9756 123.052 13.0691 123.466C14.1627 123.88 15.1579 124.518 15.9909 125.338C16.8239 126.158 17.4765 127.143 17.9069 128.23C18.3374 129.316 18.5362 130.481 18.4906 131.649ZM4.54483 131.649C4.54483 134.982 6.51457 137.751 9.6399 137.751C12.7652 137.751 14.735 134.956 14.735 131.649C14.735 128.341 12.7784 125.52 9.6399 125.52C6.50144 125.52 4.54483 128.184 4.54483 131.649Z" fill="#E5B53B"/>
<path d="M26.5924 140.153H24.4389L18.8973 123.262H22.4166L26.0278 134.706L28.4309 128.144L26.8682 123.328H30.4138L33.8542 134.418L37.6493 123.328H40.7484L34.5634 140.206H32.3835L29.6915 131.74L26.5924 140.153Z" fill="#E5B53B"/>
<path d="M57.4519 123.262V140.009H54.064L45.3708 128.853V140.009H42.3374V123.262H45.4496L54.366 134.654V123.262H57.4519Z" fill="#E5B53B"/>
<path d="M65.7249 123.262H79.9859V125.887H74.6413V140.022H71.0695V125.874H65.7249V123.262Z" fill="#E5B53B"/>
<path d="M92.5268 132.698H85.5145V140.009H81.9952V123.262H85.5145V130.113H92.5268V123.262H96.0461V140.009H92.5268V132.698Z" fill="#E5B53B"/>
<path d="M110.215 140.009H99.4075V123.262H109.913V125.887H102.966V130.1H108.048V132.725H102.966V137.41H110.202L110.215 140.009Z" fill="#E5B53B"/>
<path d="M17.2956 163.658V146.912H22.6139C26.6322 146.912 28.8252 149.064 28.8252 151.729C28.8252 154.734 25.9625 156.689 22.5483 156.689H20.8149V163.658H17.2956ZM22.0755 154.314C22.4524 154.362 22.8352 154.33 23.1991 154.221C23.563 154.112 23.9 153.928 24.1883 153.68C24.4766 153.433 24.7098 153.128 24.8729 152.785C25.036 152.442 25.1254 152.069 25.1352 151.689C25.1352 149.957 23.5857 149.196 22.0755 149.196H20.7624V154.275L22.0755 154.314Z" fill="#E5B53B"/>
<path d="M48.4308 155.298C48.4437 156.456 48.2224 157.605 47.7801 158.675C47.3379 159.745 46.6838 160.715 45.8573 161.527C45.0307 162.338 44.0486 162.974 42.9699 163.397C41.8912 163.82 40.7382 164.02 39.5801 163.987C38.4162 164.043 37.2531 163.859 36.1641 163.444C35.0751 163.03 34.0837 162.394 33.2523 161.578C32.421 160.762 31.7676 159.783 31.3334 158.702C30.8992 157.621 30.6936 156.463 30.7294 155.298C30.7203 154.14 30.944 152.992 31.3872 151.922C31.8305 150.852 32.4842 149.882 33.3096 149.069C34.1351 148.257 35.1155 147.618 36.1926 147.191C37.2697 146.764 38.4217 146.558 39.5801 146.584C40.7483 146.519 41.9171 146.699 43.0116 147.112C44.1062 147.525 45.1021 148.163 45.9356 148.983C46.769 149.804 47.4216 150.79 47.8513 151.877C48.281 152.965 48.4784 154.13 48.4308 155.298ZM34.485 155.298C34.485 158.632 36.4417 161.401 39.5801 161.401C42.7186 161.401 44.6883 158.606 44.6883 155.298C44.6883 151.991 42.7317 149.169 39.5801 149.169C36.4285 149.169 34.485 151.834 34.485 155.298Z" fill="#E5B53B"/>
<path d="M51.1884 146.912H56.6118C61.5624 146.912 66.1322 149.721 66.1322 155.233C66.1322 160.259 61.3786 163.658 56.6118 163.658H51.1884V146.912ZM56.6643 161.06C58.1786 160.991 59.6106 160.352 60.6727 159.271C61.7348 158.19 62.3482 156.747 62.3897 155.233C62.4276 154.469 62.3046 153.706 62.0286 152.993C61.7526 152.28 61.3298 151.632 60.7876 151.093C60.2454 150.553 59.5958 150.134 58.881 149.861C58.1662 149.589 57.402 149.469 56.6381 149.511H54.7209V161.047L56.6643 161.06Z" fill="#E5B53B"/>
<path d="M68.8899 163.658V146.912H72.4091V163.658H68.8899Z" fill="#E5B53B"/>
<path d="M89.8347 157.884C89.8347 161.322 87.2872 163.987 82.7436 163.987C78.2001 163.987 75.6525 161.427 75.6525 157.884V146.912H79.2243V157.411C79.2243 159.892 80.3011 161.349 82.9143 161.349C83.4225 161.36 83.9273 161.264 84.3956 161.066C84.8639 160.869 85.2849 160.574 85.6311 160.202C85.9772 159.83 86.2406 159.389 86.4038 158.908C86.567 158.427 86.6264 157.917 86.5781 157.411V146.912H89.8347V157.884Z" fill="#E5B53B"/>
<path d="M110.202 163.658H106.775L106.591 153.553L102.297 163.777H100.051L95.9803 153.553L95.5732 163.711H92.7237L93.4328 146.965H96.7419L101.574 159.236L106.696 146.965H109.795L110.202 163.658Z" fill="#E5B53B"/>
<path d="M134.416 139.996H131.225L138.054 123.197H140.496L146.681 139.996H143.018L141.704 136.229H135.9L134.416 139.996ZM136.058 117.461L140.221 120.742L139.42 121.976L134.745 119.43L136.058 117.461ZM138.842 128.368L136.728 133.867H140.825L138.842 128.368Z" fill="#E5B53B"/>
<path d="M170.095 123.236V139.982H166.707L158.014 128.827V139.982H154.968V123.236H158.132L167.049 134.641V123.236H170.095Z" fill="#E5B53B"/>
<path d="M190.449 131.622C190.462 132.78 190.241 133.929 189.799 134.999C189.356 136.069 188.702 137.039 187.876 137.851C187.049 138.662 186.067 139.298 184.988 139.721C183.91 140.144 182.757 140.344 181.599 140.311C180.435 140.367 179.272 140.183 178.183 139.768C177.094 139.354 176.102 138.718 175.271 137.902C174.44 137.086 173.786 136.107 173.352 135.026C172.918 133.945 172.712 132.787 172.748 131.622C172.737 130.464 172.959 129.315 173.402 128.244C173.845 127.173 174.498 126.202 175.324 125.389C176.15 124.576 177.131 123.937 178.209 123.511C179.287 123.085 180.44 122.88 181.599 122.908C182.767 122.843 183.936 123.023 185.03 123.436C186.125 123.849 187.121 124.487 187.954 125.307C188.788 126.128 189.44 127.114 189.87 128.201C190.3 129.289 190.497 130.454 190.449 131.622ZM176.504 131.622C176.504 134.956 178.46 137.725 181.599 137.725C184.737 137.725 186.694 134.943 186.694 131.622C186.694 128.302 184.737 125.493 181.599 125.493C178.46 125.493 176.504 128.158 176.504 131.622Z" fill="#E5B53B"/>
<path d="M207.284 134.221C207.284 137.659 204.75 140.324 200.193 140.324C195.636 140.324 193.102 137.791 193.102 134.221V123.236H196.674V133.735C196.674 136.216 197.75 137.673 200.364 137.673C200.872 137.684 201.377 137.588 201.845 137.39C202.313 137.193 202.734 136.898 203.08 136.526C203.427 136.154 203.69 135.713 203.853 135.232C204.016 134.751 204.076 134.241 204.027 133.735V123.236H207.271L207.284 134.221Z" fill="#E5B53B"/>
<path d="M215.045 137.699C216.358 137.699 217.672 137.043 217.672 135.888C217.672 134.575 216.135 133.775 214.336 132.646C212.721 131.635 210.397 130.415 210.397 127.396C210.497 126.103 211.106 124.902 212.091 124.056C213.075 123.21 214.354 122.788 215.649 122.882C217.314 122.823 218.968 123.17 220.469 123.892L219.457 126.281C218.532 125.798 217.507 125.533 216.463 125.506C215.282 125.506 213.982 125.887 213.982 126.99C213.982 128.394 215.584 129.076 217.225 130.152C218.867 131.229 221.375 132.777 221.375 135.179C221.375 138.447 218.315 140.297 214.993 140.297C213.223 140.365 211.469 139.957 209.911 139.116L210.922 136.754C212.197 137.404 213.614 137.729 215.045 137.699Z" fill="#E5B53B"/>
<path d="M234.112 137.384H240.323V140.009H230.606V123.236H234.178L234.112 137.384Z" fill="#E5B53B"/>
<path d="M252.93 139.995H242.122V123.236H252.628V125.861H245.694V130.074H250.776V132.698H245.694V137.397H252.93V139.995Z" fill="#E5B53B"/>
<path d="M132.276 163.672V146.912H137.608C141.626 146.912 143.819 149.077 143.819 151.729C143.819 154.734 140.956 156.703 137.542 156.703H135.796V163.658L132.276 163.672ZM137.056 154.327C137.433 154.375 137.816 154.343 138.18 154.234C138.544 154.125 138.881 153.941 139.169 153.693C139.457 153.446 139.691 153.141 139.854 152.798C140.017 152.455 140.106 152.082 140.116 151.702C140.116 149.97 138.553 149.209 137.056 149.209H135.743V154.288L137.056 154.327Z" fill="#E5B53B"/>
<path d="M163.412 155.298C163.424 156.456 163.203 157.605 162.761 158.675C162.319 159.745 161.665 160.715 160.838 161.527C160.011 162.338 159.029 162.974 157.951 163.397C156.872 163.82 155.719 164.02 154.561 163.987C153.397 164.043 152.234 163.859 151.145 163.444C150.056 163.03 149.064 162.394 148.233 161.578C147.402 160.762 146.748 159.783 146.314 158.702C145.88 157.621 145.674 156.462 145.71 155.298C145.699 154.14 145.922 152.991 146.364 151.92C146.807 150.849 147.461 149.878 148.286 149.065C149.112 148.252 150.093 147.613 151.171 147.187C152.249 146.761 153.402 146.556 154.561 146.584C155.729 146.521 156.896 146.702 157.99 147.116C159.084 147.53 160.079 148.167 160.912 148.988C161.745 149.808 162.397 150.793 162.828 151.879C163.258 152.966 163.457 154.131 163.412 155.298ZM149.466 155.298C149.466 158.632 151.422 161.401 154.561 161.401C157.699 161.401 159.656 158.619 159.656 155.298C159.656 151.978 157.699 149.169 154.561 149.169C151.422 149.169 149.466 151.834 149.466 155.298Z" fill="#E5B53B"/>
<path d="M166.169 146.912H171.593C176.543 146.912 181.113 149.721 181.113 155.246C181.113 160.272 176.359 163.658 171.593 163.658H166.169V146.912ZM171.645 161.073C173.158 161.001 174.589 160.361 175.65 159.28C176.711 158.2 177.326 156.759 177.37 155.246C177.408 154.482 177.285 153.719 177.009 153.006C176.733 152.293 176.311 151.645 175.768 151.106C175.226 150.567 174.577 150.147 173.862 149.874C173.147 149.602 172.383 149.482 171.619 149.524H169.715V161.073H171.645Z" fill="#E5B53B"/>
<path d="M183.883 163.672V146.912H187.403V163.658L183.883 163.672Z" fill="#E5B53B"/>
<path d="M204.815 157.897C204.815 161.336 202.281 164 197.724 164C193.168 164 190.633 161.467 190.633 157.897V146.925H194.205V157.425C194.205 159.905 195.282 161.362 197.895 161.362C198.403 161.374 198.908 161.277 199.376 161.08C199.845 160.882 200.266 160.588 200.612 160.216C200.958 159.844 201.221 159.403 201.385 158.922C201.548 158.441 201.607 157.93 201.559 157.425V146.925H204.802L204.815 157.897Z" fill="#E5B53B"/>
<path d="M225.195 163.672H221.781L221.61 153.527L217.316 163.751H215.058L210.908 153.553L210.501 163.698H207.665L208.374 146.952H211.696L216.515 159.236L221.637 146.952H224.723L225.195 163.672Z" fill="#E5B53B"/>
<path d="M122.651 122.987H120.156V163.658H122.651V122.987Z" fill="#E5B53B"/>
</svg>
