<svg width="36" height="35" viewBox="0 0 36 35" fill="none" xmlns="http://www.w3.org/2000/svg">
<path d="M17.6081 35C27.2781 35 35.1172 27.165 35.1172 17.5C35.1172 7.83502 27.2781 0 17.6081 0C7.93806 0 0.0989685 7.83502 0.0989685 17.5C0.0989685 27.165 7.93806 35 17.6081 35Z" fill="url(#paint0_linear)"/>
<path d="M26.3101 13.8925C26.2675 12.9611 26.1195 12.325 25.9031 11.7685C25.6833 11.1847 25.3387 10.6558 24.8933 10.2187C24.4561 9.77353 23.9268 9.42893 23.3427 9.20916C22.7858 8.993 22.1495 8.8452 21.2176 8.80287C20.284 8.76015 19.9857 8.75 17.6081 8.75C15.2306 8.75 14.9323 8.76015 13.9987 8.80261C13.0668 8.8452 12.4305 8.99313 11.8736 9.20943C11.2894 9.42906 10.7603 9.77353 10.323 10.2187C9.87758 10.6557 9.5328 11.1845 9.31291 11.7684C9.09664 12.325 8.94876 12.9611 8.90642 13.8923C8.86367 14.8256 8.85352 15.1236 8.85352 17.4999C8.85352 19.8764 8.86367 20.1745 8.90642 21.1077C8.9489 22.0389 9.09691 22.675 9.31332 23.2316C9.53306 23.8153 9.87771 24.3443 10.3231 24.7813C10.7603 25.2265 11.2896 25.5709 11.8737 25.7906C12.4305 26.007 13.0669 26.1548 13.9988 26.1974C14.9326 26.24 15.2307 26.25 17.6083 26.25C19.9858 26.25 20.2841 26.24 21.2177 26.1974C22.1496 26.1548 22.7859 26.007 23.3428 25.7906C24.5188 25.3361 25.4484 24.407 25.9031 23.2316C26.1196 22.675 26.2675 22.0389 26.3101 21.1077C26.3526 20.1744 26.3628 19.8764 26.3628 17.5001C26.3628 15.1236 26.3526 14.8256 26.3101 13.8925ZM24.7342 21.036C24.6954 21.8891 24.5527 22.3524 24.4329 22.6607C24.1383 23.4239 23.5349 24.027 22.7713 24.3214C22.4629 24.4411 21.9993 24.5837 21.1457 24.6226C20.2228 24.6648 19.9459 24.6736 17.6081 24.6736C15.2703 24.6736 14.9935 24.6648 14.0704 24.6226C13.2169 24.5837 12.7534 24.4411 12.4448 24.3214C12.0646 24.181 11.7206 23.9574 11.4383 23.6667C11.1474 23.3845 10.9237 23.0408 10.7833 22.6607C10.6635 22.3524 10.5208 21.8891 10.4819 21.036C10.4398 20.1134 10.4309 19.8366 10.4309 17.5002C10.4309 15.1637 10.4398 14.887 10.4819 13.9643C10.5209 13.1111 10.6635 12.6478 10.7833 12.3396C10.9237 11.9594 11.1476 11.6156 11.4383 11.3334C11.7206 11.0427 12.0646 10.8191 12.4449 10.6789C12.7534 10.559 13.2169 10.4165 14.0705 10.3776C14.9936 10.3355 15.2705 10.3266 17.6081 10.3266H17.608C19.9456 10.3266 20.2225 10.3355 21.1457 10.3777C21.9993 10.4165 22.4627 10.5591 22.7713 10.6789C23.1515 10.8192 23.4955 11.0429 23.7779 11.3334C24.0687 11.6156 24.2925 11.9594 24.4327 12.3396C24.5527 12.6478 24.6954 13.1111 24.7342 13.9643C24.7763 14.8869 24.7853 15.1637 24.7853 17.5001C24.7853 19.8366 24.7764 20.1132 24.7342 21.036Z" fill="white"/>
<path d="M17.608 13.0067C15.1252 13.0067 13.1125 15.0185 13.1125 17.5001C13.1125 19.9816 15.1252 21.9933 17.608 21.9933C20.0909 21.9933 22.1037 19.9816 22.1037 17.5001C22.1037 15.0185 20.0909 13.0067 17.608 13.0067ZM17.608 20.4167C15.9964 20.4166 14.6898 19.1108 14.69 17.4999C14.69 15.8892 15.9964 14.5833 17.6081 14.5833C19.2198 14.5834 20.5263 15.8892 20.5263 17.4999C20.5263 19.1108 19.2197 20.4167 17.608 20.4167Z" fill="white"/>
<path d="M23.3319 12.8293C23.3319 13.4091 22.8615 13.8792 22.2814 13.8792C21.7011 13.8792 21.2307 13.4091 21.2307 12.8293C21.2307 12.2493 21.7011 11.7792 22.2814 11.7792C22.8615 11.7792 23.3319 12.2493 23.3319 12.8293Z" fill="white"/>
<defs>
<linearGradient id="paint0_linear" x1="3.03764" y1="32.0628" x2="32.1636" y2="2.92194" gradientUnits="userSpaceOnUse">
<stop stop-color="#FFD600"/>
<stop offset="0.5" stop-color="#FF0100"/>
<stop offset="1" stop-color="#D800B9"/>
</linearGradient>
</defs>
</svg>
