<svg width="36" height="35" viewBox="0 0 36 35" fill="none" xmlns="http://www.w3.org/2000/svg">
<path d="M17.6654 35C27.3354 35 35.1745 27.165 35.1745 17.5C35.1745 7.83502 27.3354 0 17.6654 0C7.99535 0 0.15625 7.83502 0.15625 17.5C0.15625 27.165 7.99535 35 17.6654 35Z" fill="#039BE5"/>
<path d="M8.16813 17.1209L25.0498 10.6153C25.8334 10.3324 26.5177 10.8063 26.2638 11.9905L26.2653 11.989L23.3909 25.5238C23.1778 26.4834 22.6073 26.7167 21.8092 26.2646L17.4319 23.0403L15.3206 25.0732C15.0872 25.3065 14.8902 25.5034 14.4379 25.5034L14.7486 21.0511L22.8612 13.7259C23.2143 13.4153 22.7824 13.2403 22.317 13.5494L12.2915 19.8582L7.96969 18.5107C7.0315 18.2132 7.01107 17.573 8.16813 17.1209Z" fill="white"/>
</svg>
