<svg width="36" height="35" viewBox="0 0 36 35" fill="none" xmlns="http://www.w3.org/2000/svg">
<path d="M17.6367 35C27.3067 35 35.1458 27.165 35.1458 17.5C35.1458 7.83502 27.3067 0 17.6367 0C7.96669 0 0.127594 7.83502 0.127594 17.5C0.127594 27.165 7.96669 35 17.6367 35Z" fill="#55ACEE"/>
<path d="M28.3617 12.5768C27.6113 12.9093 26.8042 13.1343 25.9577 13.2347C26.822 12.7172 27.4852 11.8983 27.7983 10.9209C26.9896 11.4004 26.0935 11.7483 25.1406 11.9357C24.3772 11.1231 23.2895 10.6152 22.085 10.6152C19.7741 10.6152 17.8998 12.4885 17.8998 14.7982C17.8998 15.1261 17.937 15.4452 18.0088 15.7516C14.5305 15.5772 11.4465 13.912 9.38217 11.3805C9.02199 11.9981 8.81537 12.7172 8.81537 13.4837C8.81537 14.9346 9.55477 16.2154 10.6771 16.9654C9.99143 16.9439 9.34566 16.7557 8.78166 16.4416C8.78135 16.4594 8.78135 16.4772 8.78135 16.4946C8.78135 18.5214 10.2246 20.2119 12.1388 20.5959C11.788 20.692 11.4175 20.7428 11.0364 20.7428C10.7661 20.7428 10.5042 20.7169 10.2489 20.6683C10.7814 22.3297 12.3267 23.5392 14.1585 23.5732C12.7259 24.6953 10.9215 25.3638 8.96019 25.3638C8.62311 25.3638 8.28914 25.3442 7.96236 25.3052C9.81352 26.4925 12.0139 27.1847 14.3773 27.1847C22.0753 27.1847 26.2852 20.8108 26.2852 15.2827C26.2852 15.1015 26.2811 14.9208 26.273 14.7418C27.0913 14.1522 27.8008 13.4156 28.3617 12.5768Z" fill="#F1F2F2"/>
</svg>
