<svg width="36" height="35" viewBox="0 0 36 35" fill="none" xmlns="http://www.w3.org/2000/svg">
<path d="M17.694 35C27.364 35 35.2031 27.165 35.2031 17.5C35.2031 7.83502 27.364 0 17.694 0C8.02398 0 0.184875 7.83502 0.184875 17.5C0.184875 27.165 8.02398 35 17.694 35Z" fill="#FF0000"/>
<path d="M23.552 10.4135H11.836C9.53742 10.4135 7.67407 12.2759 7.67407 14.5733V20.427C7.67407 22.7244 9.53749 24.5868 11.836 24.5868H23.552C25.8506 24.5868 27.7139 22.7243 27.7139 20.427V14.5733C27.7139 12.2759 25.8505 10.4135 23.552 10.4135ZM20.7372 17.7849L15.2574 20.3971C15.1113 20.4667 14.9425 20.3604 14.9425 20.1987V14.8111C14.9425 14.647 15.1157 14.5407 15.2619 14.6149L20.7417 17.3903C20.9049 17.4728 20.902 17.7064 20.7372 17.7849Z" fill="white"/>
</svg>
