<svg width="37" height="35" viewBox="0 0 37 35" fill="none" xmlns="http://www.w3.org/2000/svg">
<path d="M28.2499 20.1382C28.0883 19.9651 27.9791 19.8487 27.8709 19.7313C23.2211 14.6994 18.5706 9.66824 13.926 4.6318C13.7546 4.44587 13.5852 4.3734 13.3342 4.37406C10.7468 4.38258 8.159 4.3793 5.57156 4.3793C5.45412 4.3793 5.337 4.3793 5.20179 4.3793C5.13731 13.1855 5.17711 21.9572 5.20014 30.7765C5.31923 30.7765 5.43504 30.7765 5.55051 30.7765C7.68855 30.7765 9.8266 30.7801 11.9646 30.7715C12.2028 30.7706 12.3667 30.8329 12.5312 31.0129C13.6602 32.2494 14.8021 33.4742 15.9397 34.7032C16.0114 34.781 16.0789 34.8629 16.1772 34.9764C11.0626 34.9764 5.99463 34.9764 0.910889 34.9764C0.910889 23.3256 0.910889 11.6908 0.910889 0.0295131C0.98787 0.0219711 1.07044 0.00655883 1.15269 0.00623091C5.84527 0.00491925 10.5382 0.00688716 15.2308 9.4982e-07C15.4328 -0.000326965 15.5489 0.0842751 15.6726 0.217736C17.6656 2.36951 19.6631 4.51736 21.6571 6.66848C23.7849 8.96421 25.9085 11.2635 28.039 13.5567C28.1903 13.7193 28.2558 13.8803 28.2548 14.1056C28.2456 15.9852 28.2495 17.8651 28.2495 19.7447C28.2499 19.85 28.2499 19.9549 28.2499 20.1382Z" fill="#11105E"/>
<path d="M32.6342 30.7768C32.6342 21.9677 32.6342 13.1966 32.6342 4.37931C32.5088 4.37931 32.3927 4.37931 32.2769 4.37931C30.1389 4.37931 28.0008 4.37603 25.8631 4.3839C25.6358 4.38455 25.4795 4.31799 25.3249 4.15075C24.1284 2.85745 22.9223 1.57268 21.7193 0.284959C21.6521 0.213146 21.5867 0.140349 21.5242 0.0718144C21.5304 0.0521396 21.5317 0.0409905 21.537 0.0324648C21.5416 0.0242669 21.5505 0.0127902 21.5574 0.0127902C26.6754 0.0118064 31.7933 0.0118065 36.9297 0.0118065C36.9297 11.6711 36.9297 23.3154 36.9297 34.9961C36.8218 34.9961 36.7152 34.9961 36.6086 34.9961C31.916 34.9961 27.2234 34.9948 22.5308 35C22.317 35.0003 22.1677 34.9426 22.019 34.7819C17.9472 30.3787 13.8708 25.9797 9.78909 21.5853C9.62657 21.4102 9.56703 21.239 9.56801 21.0059C9.57624 19.1371 9.57262 17.2683 9.57262 15.3995C9.57262 15.2936 9.57262 15.1877 9.57262 15.0208C9.67461 15.1172 9.73744 15.1697 9.79271 15.229C14.4942 20.317 19.1966 25.4046 23.8918 30.4981C24.0784 30.7004 24.2593 30.7843 24.5373 30.783C27.1027 30.7719 29.6684 30.7765 32.2341 30.7765C32.3532 30.7768 32.4733 30.7768 32.6342 30.7768Z" fill="#11105E"/>
<path d="M12.868 9.05504C13.9823 9.06029 14.8982 9.98567 14.885 11.093C14.8722 12.1912 13.9645 13.0891 12.8621 13.0936C11.7505 13.0982 10.826 12.1788 10.8287 11.0707C10.8313 9.95943 11.7518 9.04947 12.868 9.05504Z" fill="#11105E"/>
</svg>
