<svg width="24" height="17" viewBox="0 0 24 17" fill="none" xmlns="http://www.w3.org/2000/svg">
<path d="M0.767822 11.3334H23.4462V17H0.767822V11.3334Z" fill="#1EB53A"/>
<path d="M0.767822 0H23.4462V5.66663H0.767822V0Z" fill="#0099B5"/>
<path d="M0.767822 5.43994H23.4462V11.5599H0.767822V5.43994Z" fill="#CE1126"/>
<path d="M0.767822 5.78015H23.4462V11.2201H0.767822V5.78015Z" fill="white"/>
<path d="M5.53009 4.76001C6.65735 4.76001 7.57117 3.84665 7.57117 2.71997C7.57117 1.59329 6.65735 0.679932 5.53009 0.679932C4.40283 0.679932 3.48901 1.59329 3.48901 2.71997C3.48901 3.84665 4.40283 4.76001 5.53009 4.76001Z" fill="white"/>
<path d="M6.21082 4.76001C7.33804 4.76001 8.25183 3.84665 8.25183 2.71997C8.25183 1.59329 7.33804 0.679932 6.21082 0.679932C5.08359 0.679932 4.1698 1.59329 4.1698 2.71997C4.1698 3.84665 5.08359 4.76001 6.21082 4.76001Z" fill="#0099B5"/>
</svg>
