<svg width="17" height="17" viewBox="0 0 17 17" fill="none" xmlns="http://www.w3.org/2000/svg">
<path d="M6.97998 13.9604C3.11414 13.9604 0 10.8462 0 6.9802C0 3.11424 3.11414 0 6.97998 0C10.8458 0 13.96 3.11424 13.96 6.9802C13.96 10.8462 10.8458 13.9604 6.97998 13.9604ZM6.97998 1.07388C3.70476 1.07388 1.07384 3.70487 1.07384 6.9802C1.07384 10.2555 3.70476 12.8865 6.97998 12.8865C10.2552 12.8865 12.8861 10.2555 12.8861 6.9802C12.8861 3.70487 10.2552 1.07388 6.97998 1.07388Z" fill="#999999"/>
<path d="M12.1784 11.4191L17 16.2408L16.2408 17L11.4192 12.1783L12.1784 11.4191Z" fill="#999999"/>
</svg>
